<mxfile host="app.diagrams.net" modified="2021-07-02T17:22:30.331Z" agent="5.0 (Macintosh; Intel Mac OS X 10_15_7) AppleWebKit/537.36 (KHTML, like Gecko) Chrome/90.0.4430.212 Safari/537.36" etag="Em6pHJe5dsnvsed20uaE" version="14.8.3" type="github">
  <diagram id="-af61Uw_ivKoVaI1c6DU" name="Page-1">
    <mxGraphModel dx="946" dy="525" grid="1" gridSize="10" guides="1" tooltips="1" connect="1" arrows="1" fold="1" page="1" pageScale="1" pageWidth="827" pageHeight="1169" math="0" shadow="0">
      <root>
        <mxCell id="0" />
        <mxCell id="1" parent="0" />
        <mxCell id="c_5og_qM-pxq5MgcpmB5-3" value="" style="edgeStyle=orthogonalEdgeStyle;rounded=0;orthogonalLoop=1;jettySize=auto;html=1;" edge="1" parent="1" source="c_5og_qM-pxq5MgcpmB5-1" target="c_5og_qM-pxq5MgcpmB5-2">
          <mxGeometry relative="1" as="geometry" />
        </mxCell>
        <mxCell id="c_5og_qM-pxq5MgcpmB5-1" value="hello" style="rounded=0;whiteSpace=wrap;html=1;" vertex="1" parent="1">
          <mxGeometry x="250" y="230" width="120" height="60" as="geometry" />
        </mxCell>
        <mxCell id="c_5og_qM-pxq5MgcpmB5-2" value="hello" style="rounded=0;whiteSpace=wrap;html=1;" vertex="1" parent="1">
          <mxGeometry x="410" y="230" width="120" height="60" as="geometry" />
        </mxCell>
      </root>
    </mxGraphModel>
  </diagram>
</mxfile>
